<svg width="10" height="9" viewBox="0 0 10 9" fill="none" xmlns="http://www.w3.org/2000/svg">
<g clip-path="url(#clip0_65_378)">
<path d="M5 5.86249C5.26853 5.86249 5.52607 5.75581 5.71595 5.56593C5.90583 5.37605 6.0125 5.11852 6.0125 4.84999C6.0125 4.58145 5.90583 4.32392 5.71595 4.13404C5.52607 3.94416 5.26853 3.83749 5 3.83749C4.73147 3.83749 4.47394 3.94416 4.28406 4.13404C4.09418 4.32392 3.9875 4.58145 3.9875 4.84999C3.9875 5.11852 4.09418 5.37605 4.28406 5.56593C4.47394 5.75581 4.73147 5.86249 5 5.86249V5.86249Z" stroke="black" stroke-width="0.50625" stroke-miterlimit="10" stroke-linecap="round" stroke-linejoin="round"/>
<path d="M1.625 5.14699V4.55299C1.625 4.20199 1.91188 3.91174 2.26625 3.91174C2.87713 3.91174 3.12688 3.47974 2.81975 2.94986C2.64425 2.64611 2.74887 2.25124 3.056 2.07574L3.63987 1.74161C3.9065 1.58299 4.25075 1.67749 4.40938 1.94411L4.4465 2.00824C4.75025 2.53811 5.24975 2.53811 5.55687 2.00824L5.594 1.94411C5.75263 1.67749 6.09688 1.58299 6.3635 1.74161L6.94738 2.07574C7.2545 2.25124 7.35912 2.64611 7.18362 2.94986C6.8765 3.47974 7.12625 3.91174 7.73713 3.91174C8.08813 3.91174 8.37838 4.19861 8.37838 4.55299V5.14699C8.37838 5.49799 8.0915 5.78824 7.73713 5.78824C7.12625 5.78824 6.8765 6.22024 7.18362 6.75011C7.35912 7.05724 7.2545 7.44874 6.94738 7.62424L6.3635 7.95836C6.09688 8.11699 5.75263 8.02249 5.594 7.75586L5.55687 7.69174C5.25312 7.16186 4.75362 7.16186 4.4465 7.69174L4.40938 7.75586C4.25075 8.02249 3.9065 8.11699 3.63987 7.95836L3.056 7.62424C2.90888 7.53953 2.80138 7.39992 2.75709 7.23604C2.7128 7.07216 2.73533 6.8974 2.81975 6.75011C3.12688 6.22024 2.87713 5.78824 2.26625 5.78824C1.91188 5.78824 1.625 5.49799 1.625 5.14699V5.14699Z" stroke="black" stroke-width="0.50625" stroke-miterlimit="10" stroke-linecap="round" stroke-linejoin="round"/>
</g>
<defs>
<clipPath id="clip0_65_378">
<rect width="8.1" height="8.1" fill="white" transform="translate(0.949997 0.799988)"/>
</clipPath>
</defs>
</svg>
