<svg width="20" height="20" viewBox="0 0 20 20" fill="none" xmlns="http://www.w3.org/2000/svg">
<rect x="0.550003" y="0.400002" width="18.9" height="18.9" rx="4.725" fill="#615EF0"/>
<path d="M11.8853 13.5692C11.8758 13.5692 11.8617 13.5668 11.8428 13.5621C11.8239 13.5573 11.7861 13.5432 11.7294 13.5195C11.6774 13.5006 11.5923 13.4676 11.4742 13.4203C11.3561 13.3731 11.1907 13.3069 10.9781 13.2219C10.7702 13.1368 10.5009 13.0281 10.1701 12.8958C9.83936 12.7683 9.43301 12.61 8.95106 12.421C8.53526 12.2556 8.21632 11.9745 7.99424 11.5776C7.77217 11.1759 7.66113 10.668 7.66113 10.0538C7.66113 9.23634 7.85722 8.61027 8.24939 8.17557C8.64629 7.73615 9.20857 7.51644 9.93622 7.51644C10.6686 7.51644 11.2285 7.73615 11.616 8.17557C12.0081 8.61027 12.2042 9.23634 12.2042 10.0538C12.2042 10.6113 12.1074 11.0814 11.9136 11.4642C11.7246 11.8469 11.4506 12.1304 11.0915 12.3147V12.343L12.1759 12.7328C12.242 12.7565 12.2751 12.7943 12.2751 12.8462C12.2751 12.8746 12.2656 12.9266 12.2467 13.0022C12.2278 13.0825 12.1995 13.1652 12.1617 13.2502C12.1286 13.3353 12.0885 13.4085 12.0412 13.4699C11.994 13.5361 11.942 13.5692 11.8853 13.5692ZM9.93622 11.691C10.3142 11.691 10.6001 11.5516 10.7938 11.2728C10.9875 10.9893 11.0844 10.583 11.0844 10.0538C11.0844 9.53401 10.9875 9.13711 10.7938 8.86306C10.6001 8.58901 10.3142 8.45199 9.93622 8.45199C9.55822 8.45199 9.26999 8.58901 9.07154 8.86306C8.87782 9.13711 8.78096 9.53401 8.78096 10.0538C8.78096 10.583 8.87782 10.9893 9.07154 11.2728C9.26999 11.5516 9.55822 11.691 9.93622 11.691Z" fill="white"/>
</svg>
