<svg width="9" height="9" viewBox="0 0 9 9" fill="none" xmlns="http://www.w3.org/2000/svg">
<g clip-path="url(#clip0_92_984)">
<path d="M4.58271 7.73334C4.98675 7.73334 5.31733 7.43334 5.31733 7.06667H3.84809C3.84809 7.43334 4.17867 7.73334 4.58271 7.73334ZM6.78656 5.73334V4.06667C6.78656 3.04334 6.18785 2.18667 5.13367 1.96V1.73334C5.13367 1.45667 4.88758 1.23334 4.58271 1.23334C4.27784 1.23334 4.03175 1.45667 4.03175 1.73334V1.96C2.98124 2.18667 2.37886 3.04 2.37886 4.06667V5.73334L1.64424 6.4V6.73334H7.52118V6.4L6.78656 5.73334ZM6.05195 6.06667H3.11348V4.06667C3.11348 3.24 3.66811 2.56667 4.58271 2.56667C5.49731 2.56667 6.05195 3.24 6.05195 4.06667V6.06667Z" fill="#858585"/>
</g>
<defs>
<clipPath id="clip0_92_984">
<rect width="8.81541" height="8" fill="white" transform="translate(0.175003 0.399994)"/>
</clipPath>
</defs>
</svg>
