<svg width="2" height="2" viewBox="0 0 2 2" fill="none" xmlns="http://www.w3.org/2000/svg">
<path d="M0.992804 1.13894C0.973728 1.13894 0.954928 1.13805 0.936293 1.13635L0.645081 1.42756C0.820233 1.49464 1.01107 1.50954 1.19451 1.47048C1.37795 1.43141 1.54615 1.34004 1.67878 1.20742C1.8114 1.07479 1.90277 0.906595 1.94183 0.723151C1.9809 0.539708 1.96599 0.348875 1.89892 0.173723L1.6077 0.464936C1.60941 0.483571 1.61029 0.502371 1.61029 0.521447C1.61034 0.602549 1.5944 0.682865 1.56338 0.757802C1.53236 0.832739 1.48688 0.900828 1.42953 0.958175C1.37218 1.01552 1.3041 1.06101 1.22916 1.09202C1.15422 1.12304 1.07391 1.13898 0.992804 1.13894Z" fill="black" fill-opacity="0.44"/>
</svg>
