<svg width="4" height="5" viewBox="0 0 4 5" fill="none" xmlns="http://www.w3.org/2000/svg">
<path fill-rule="evenodd" clip-rule="evenodd" d="M2.0149 0.638593C1.48369 0.638593 1.05344 1.08368 1.05344 1.63321C1.05344 2.18274 1.48369 2.62783 2.0149 2.62783C2.54611 2.62783 2.97637 2.18274 2.97637 1.63321C2.97637 1.08368 2.54611 0.638593 2.0149 0.638593ZM2.4956 1.63321C2.4956 1.35969 2.27927 1.1359 2.01487 1.1359C1.75047 1.1359 1.53414 1.35969 1.53414 1.63321C1.53414 1.90673 1.75047 2.13052 2.01487 2.13052C2.27927 2.13052 2.4956 1.90673 2.4956 1.63321ZM3.45707 4.11978C3.409 3.94324 2.66386 3.62247 2.01487 3.62247C1.36829 3.62247 0.627962 3.94075 0.572677 4.11978H3.45707ZM0.0919189 4.11981C0.0919189 3.45839 1.37307 3.12519 2.01485 3.12519C2.65663 3.12519 3.93778 3.45839 3.93778 4.11981V4.61712H0.0919189V4.11981Z" fill="black" fill-opacity="0.44"/>
</svg>
