<svg width="10" height="9" viewBox="0 0 10 9" fill="none" xmlns="http://www.w3.org/2000/svg">
<path d="M6.6875 1.075H3.3125C2.381 1.075 1.625 1.82763 1.625 2.75575V5.1115C1.625 6.03963 2.381 6.79225 3.3125 6.79225H3.81875C3.90988 6.79225 4.03138 6.853 4.08875 6.92725L4.595 7.59888C4.81775 7.89588 5.18225 7.89588 5.405 7.59888L5.91125 6.92725C5.97538 6.84288 6.07662 6.79225 6.18125 6.79225H6.6875C7.619 6.79225 8.375 6.03963 8.375 5.1115V2.75575C8.375 1.82763 7.619 1.075 6.6875 1.075ZM3.65 4.45C3.461 4.45 3.3125 4.29813 3.3125 4.1125C3.3125 3.92688 3.46438 3.775 3.65 3.775C3.83562 3.775 3.9875 3.92688 3.9875 4.1125C3.9875 4.29813 3.839 4.45 3.65 4.45ZM5 4.45C4.811 4.45 4.6625 4.29813 4.6625 4.1125C4.6625 3.92688 4.81438 3.775 5 3.775C5.18563 3.775 5.3375 3.92688 5.3375 4.1125C5.3375 4.29813 5.189 4.45 5 4.45ZM6.35 4.45C6.161 4.45 6.0125 4.29813 6.0125 4.1125C6.0125 3.92688 6.16438 3.775 6.35 3.775C6.53562 3.775 6.6875 3.92688 6.6875 4.1125C6.6875 4.29813 6.539 4.45 6.35 4.45Z" fill="#615EF0"/>
</svg>
