<svg width="9" height="9" viewBox="0 0 9 9" fill="none" xmlns="http://www.w3.org/2000/svg">
<g clip-path="url(#clip0_92_1000)">
<path d="M4.2154 6.20003H4.95002V5.53337H4.2154V6.20003ZM4.58271 0.866699C2.55516 0.866699 0.909622 2.36003 0.909622 4.20003C0.909622 6.04003 2.55516 7.53337 4.58271 7.53337C6.61025 7.53337 8.2558 6.04003 8.2558 4.20003C8.2558 2.36003 6.61025 0.866699 4.58271 0.866699ZM4.58271 6.8667C2.96288 6.8667 1.64424 5.67003 1.64424 4.20003C1.64424 2.73003 2.96288 1.53337 4.58271 1.53337C6.20254 1.53337 7.52118 2.73003 7.52118 4.20003C7.52118 5.67003 6.20254 6.8667 4.58271 6.8667ZM4.58271 2.20003C3.77096 2.20003 3.11347 2.7967 3.11347 3.53337H3.84809C3.84809 3.1667 4.17867 2.8667 4.58271 2.8667C4.98675 2.8667 5.31733 3.1667 5.31733 3.53337C5.31733 4.20003 4.2154 4.1167 4.2154 5.20003H4.95002C4.95002 4.45003 6.05194 4.3667 6.05194 3.53337C6.05194 2.7967 5.39446 2.20003 4.58271 2.20003Z" fill="#858585"/>
</g>
<defs>
<clipPath id="clip0_92_1000">
<rect width="8.81541" height="8" fill="white" transform="translate(0.175003 0.200012)"/>
</clipPath>
</defs>
</svg>
