<svg width="10" height="9" viewBox="0 0 10 9" fill="none" xmlns="http://www.w3.org/2000/svg">
<g clip-path="url(#clip0_65_376)">
<path d="M8.375 7.725L7.7 7.05M4.83125 7.3875C5.2523 7.3875 5.66923 7.30457 6.05823 7.14344C6.44723 6.98231 6.80068 6.74614 7.09841 6.44841C7.39614 6.15069 7.63231 5.79723 7.79344 5.40823C7.95457 5.01923 8.0375 4.6023 8.0375 4.18125C8.0375 3.7602 7.95457 3.34327 7.79344 2.95427C7.63231 2.56527 7.39614 2.21182 7.09841 1.91409C6.80068 1.61636 6.44723 1.38019 6.05823 1.21906C5.66923 1.05793 5.2523 0.975002 4.83125 0.975002C3.9809 0.975002 3.16538 1.3128 2.56409 1.91409C1.9628 2.51538 1.625 3.3309 1.625 4.18125C1.625 5.0316 1.9628 5.84712 2.56409 6.44841C3.16538 7.0497 3.9809 7.3875 4.83125 7.3875V7.3875Z" stroke="black" stroke-width="0.50625" stroke-linecap="round" stroke-linejoin="round"/>
</g>
<defs>
<clipPath id="clip0_65_376">
<rect width="8.1" height="8.1" fill="white" transform="translate(0.949997 0.300003)"/>
</clipPath>
</defs>
</svg>
