<svg width="6" height="5" viewBox="0 0 6 5" fill="none" xmlns="http://www.w3.org/2000/svg">
<path d="M5.38669 2.37924C5.19288 1.97092 4.96224 1.63792 4.69477 1.38023L4.41425 1.66074C4.643 1.87935 4.84225 2.16532 5.01454 2.52148C4.55583 3.47087 3.90471 3.92186 3.01487 3.92186C2.74776 3.92186 2.50174 3.88073 2.2768 3.79847L1.97285 4.10242C2.28527 4.24668 2.63261 4.31882 3.01487 4.31882C4.07452 4.31882 4.86513 3.76694 5.38669 2.66317C5.40766 2.61878 5.41853 2.5703 5.41853 2.5212C5.41853 2.47211 5.40766 2.42363 5.38669 2.37924ZM5.03621 0.611452L4.80118 0.376145C4.79708 0.372044 4.79221 0.368791 4.78686 0.366571C4.78151 0.364351 4.77577 0.363209 4.76997 0.363209C4.76417 0.363209 4.75843 0.364351 4.75308 0.366571C4.74773 0.368791 4.74286 0.372044 4.73876 0.376145L4.13577 0.978859C3.80332 0.809049 3.42969 0.724144 3.01487 0.724144C1.95521 0.724144 1.1646 1.27603 0.643043 2.37979C0.622079 2.42418 0.611206 2.47266 0.611206 2.52176C0.611206 2.57085 0.622079 2.61933 0.643043 2.66372C0.851409 3.10258 1.10226 3.45435 1.39561 3.71902L0.812191 4.30228C0.803926 4.31055 0.799283 4.32176 0.799283 4.33345C0.799283 4.34515 0.803926 4.35636 0.812191 4.36463L1.04755 4.6C1.05582 4.60826 1.06704 4.6129 1.07873 4.6129C1.09042 4.6129 1.10164 4.60826 1.10991 4.6L5.03621 0.673863C5.04031 0.669767 5.04356 0.664902 5.04578 0.659548C5.048 0.654193 5.04914 0.648454 5.04914 0.642658C5.04914 0.636861 5.048 0.631122 5.04578 0.625767C5.04356 0.620413 5.04031 0.615549 5.03621 0.611452ZM1.01519 2.52148C1.47445 1.57209 2.12557 1.1211 3.01487 1.1211C3.31556 1.1211 3.58897 1.17271 3.83701 1.27762L3.44942 1.66521C3.26587 1.56727 3.0557 1.53093 2.84991 1.56153C2.64412 1.59213 2.45362 1.68807 2.30651 1.83518C2.1594 1.98229 2.06346 2.17279 2.03286 2.37858C2.00226 2.58436 2.0386 2.79454 2.13654 2.97809L1.67662 3.43801C1.42207 3.21334 1.20264 2.90896 1.01519 2.52148ZM2.37532 2.52148C2.37542 2.42426 2.39845 2.32844 2.44254 2.24179C2.48662 2.15514 2.55053 2.08012 2.62906 2.02281C2.70759 1.9655 2.79854 1.92752 2.8945 1.91196C2.99047 1.89641 3.08875 1.9037 3.18137 1.93327L2.4046 2.71004C2.38513 2.64908 2.37525 2.58547 2.37532 2.52148Z" fill="black" fill-opacity="0.44"/>
</svg>
